<?xml version="1.0" encoding="UTF-8" standalone="no"?>
<!-- Generator: Adobe Illustrator 23.0.1, SVG Export Plug-In . SVG Version: 6.00 Build 0)  -->

<svg
   version="1.1"
   id="Livello_1"
   x="0px"
   y="0px"
   viewBox="0 0 1280 800"
   enable-background="new 0 0 517.3 250"
   xml:space="preserve"
   sodipodi:docname="Mediaset_Infinity.svg"
   width="1280"
   height="800"
   inkscape:version="1.1 (c68e22c387, 2021-05-23)"
   inkscape:export-filename="C:\Users\vgun\Documents\KodiPortable\LeiaDev\portable_data\addons\plugin.video.mediasetinfinity\resources\media\fanart.png"
   inkscape:export-xdpi="96"
   inkscape:export-ydpi="96"
   xmlns:inkscape="http://www.inkscape.org/namespaces/inkscape"
   xmlns:sodipodi="http://sodipodi.sourceforge.net/DTD/sodipodi-0.dtd"
   xmlns="http://www.w3.org/2000/svg"
   xmlns:svg="http://www.w3.org/2000/svg"><defs
   id="defs62" /><sodipodi:namedview
   id="namedview60"
   pagecolor="#ffffff"
   bordercolor="#666666"
   borderopacity="1.0"
   inkscape:pageshadow="2"
   inkscape:pageopacity="0.0"
   inkscape:pagecheckerboard="0"
   showgrid="true"
   width="1280px"
   inkscape:zoom="2.8010826"
   inkscape:cx="574.24226"
   inkscape:cy="382.17366"
   inkscape:window-width="2560"
   inkscape:window-height="1361"
   inkscape:window-x="-9"
   inkscape:window-y="-9"
   inkscape:window-maximized="1"
   inkscape:current-layer="Livello_1"><inkscape:grid
     type="xygrid"
     id="grid64" /></sodipodi:namedview>
<g
   id="g57"
   transform="translate(381.3,275)">
	
		<linearGradient
   id="SVGID_1_"
   gradientUnits="userSpaceOnUse"
   x1="-680.19171"
   y1="636.18372"
   x2="-675.16089"
   y2="636.99792"
   gradientTransform="matrix(66.9903,0,0,-19.267,45654.871,12444.532)">
		<stop
   offset="0"
   style="stop-color:#8520DA"
   id="stop2" />
		<stop
   offset="0.2925"
   style="stop-color:#8123DB"
   id="stop4" />
		<stop
   offset="0.3885"
   style="stop-color:#742DDF"
   id="stop6" />
		<stop
   offset="0.4861"
   style="stop-color:#603DE4"
   id="stop8" />
		<stop
   offset="0.5849"
   style="stop-color:#4254ED"
   id="stop10" />
		<stop
   offset="0.6835"
   style="stop-color:#1D70F7"
   id="stop12" />
		<stop
   offset="0.75"
   style="stop-color:#0087FF"
   id="stop14" />
		<stop
   offset="1"
   style="stop-color:#00E474"
   id="stop16" />
	</linearGradient>
	<path
   fill-rule="evenodd"
   clip-rule="evenodd"
   fill="url(#SVGID_1_)"
   d="m 148.8,137.8 v 91.6 h 18.3 v -91.6 c 0,-10.1 8.2,-18.3 18.3,-18.3 v 0 c 10.1,0 18.3,8.2 18.3,18.3 v 0 H 222 c 0,-20.2 -16.4,-36.6 -36.6,-36.6 v 0 c -20.2,0 -36.6,16.4 -36.6,36.6 z M 389.1,119.5 V 195 c 0,20.2 16.4,36.6 36.6,36.6 v 0 -18.3 c -10.1,0 -18.3,-8.2 -18.3,-18.3 v 0 -57.2 h 54.9 v -18.3 z m -36.6,18.3 h 18.3 V 119.5 H 352.5 Z M 0,137.8 H 18.3 V 119.5 H 0 Z m 240.3,52.7 v 38.9 h 18.3 v -38.9 c 0,-10.1 8.2,-18.3 18.3,-18.3 v 0 c 4,0 17.4,1.6 19.5,21.6 v 0 c 1.9,17.2 9.8,26.3 16.2,30.9 v 0 c 8.7,6.3 18,7 21.5,7 v 0 c 20.2,0 36.6,-16.4 36.6,-36.6 v 0 -38.9 h -18.3 v 38.9 c 0,10.1 -8.2,18.3 -18.3,18.3 v 0 c -4,0 -17.4,-1.6 -19.5,-21.6 v 0 c -1.9,-17.2 -9.8,-26.3 -16.2,-30.9 v 0 c -8.7,-6.3 -18,-7 -21.5,-7 v 0 c -20.1,0 -36.6,16.4 -36.6,36.6 z m -168,-29.6 c -6.4,4.6 -14.3,13.7 -16.2,30.9 v 0 c -2.2,20 -15.5,21.6 -19.5,21.6 v 0 c -10.1,0 -18.3,-8.2 -18.3,-18.3 v 0 -38.9 H 0 v 38.9 c 0,20.2 16.4,36.6 36.6,36.6 v 0 c 3.6,0 12.8,-0.7 21.5,-7 v 0 c 6.4,-4.6 14.3,-13.7 16.2,-30.9 v 0 c 2.2,-20 15.5,-21.6 19.5,-21.6 v 0 c 10.1,0 18.3,8.2 18.3,18.3 v 0 38.9 h 18.3 v -38.9 c 0,-20.2 -16.4,-36.6 -36.6,-36.6 v 0 c -3.5,0 -12.7,0.7 -21.5,7 z M 499,156.2 v 38.9 c 0,10.1 -8.2,18.3 -18.3,18.3 v 0 c -10.1,0 -18.3,-8.2 -18.3,-18.3 v 0 -38.9 h -18.3 v 38.9 c 0,17.1 11.7,31.4 27.5,35.5 v 0 19.4 h 18.3 v -19.5 c 15.8,-4.1 27.5,-18.4 27.5,-35.5 v 0 -38.9 H 499 Z m -313.6,0 v 18.3 h 18.3 v 54.9 H 222 v -73.2 z"
   id="path19"
   style="fill:url(#SVGID_1_)" />
	<path
   id="Fill-4"
   fill-rule="evenodd"
   clip-rule="evenodd"
   fill="#323f47"
   d="m 424.4,18.6 h -19.2 l -6.9,57.7 h -12.5 l 6.9,-57.7 H 374 L 375.4,7 h 50.3 z m -57.4,0 h -24.3 l -2,16.3 H 362 l -1.4,11.6 h -21.3 l -2.2,18.2 h 30.6 l -1.4,11.6 H 323.2 L 331.6,7 h 36.8 z m -49.7,5.1 c -3.8,-3.2 -10.1,-6.1 -14.6,-6.1 -4.6,0 -8.3,3 -8.3,7.6 0,10 21.7,11.3 21.7,30.7 0,11.2 -6.7,21.2 -19.9,21.2 -8.5,0 -14.8,-2.5 -20,-6.6 l 1.9,-12.1 c 4.7,4.1 11.7,7.1 16.7,7.1 5.1,0 8.5,-3 8.5,-7.6 0,-11.5 -21.7,-12.8 -21.7,-31 0,-12 8.8,-20.9 20.7,-20.9 5.7,0 11.7,1.9 16.8,5.5 z M 242,51.3 h 13.6 l -3.1,-30.7 h -0.2 z m 29.4,24.9 h -12.9 l -1.8,-15.1 h -18.3 l -5.7,15.1 H 218.9 L 247.7,6 H 261 Z m -58.8,0 H 200.1 L 208.4,7 h 12.5 z M 150.1,64.7 h 11.7 c 13.9,0 19.6,-12.2 19.6,-24.2 0,-12.2 -6.9,-21.9 -19.9,-21.9 h -6 z M 164,7 c 23.5,0 30.4,18.7 30.4,33.7 0,20.6 -12.1,35.5 -27.8,35.5 H 136.2 L 144.4,7 Z m -33.8,11.6 h -24.3 l -2,16.3 h 21.3 l -1.4,11.6 h -21.3 l -2.2,18.2 H 131 l -1.4,11.6 H 86.5 L 94.8,7 h 36.8 z M 78.3,76.2 H 66.2 L 64.4,29.4 H 64.2 L 42.4,76.2 h -6 L 26.1,28.1 H 25.9 L 12.6,76.2 H 0 L 19.2,7 H 32.9 L 42.4,50.6 62.2,7 h 13.3 z"
   style="fill:#21262c;fill-opacity:1;stroke:none;stroke-opacity:1" />
	<g
   id="g55">
		
			<linearGradient
   id="SVGID_2_"
   gradientUnits="userSpaceOnUse"
   x1="-576.13049"
   y1="594.97137"
   x2="-574.2619"
   y2="592.90698"
   gradientTransform="matrix(9.4857,0,0,-6.0494,5928.2539,3619.7095)">
			<stop
   offset="0"
   style="stop-color:#B26EFF"
   id="stop22" />
			<stop
   offset="0.4842"
   style="stop-color:#C576FF"
   id="stop24" />
			<stop
   offset="1"
   style="stop-color:#CF7AFF"
   id="stop26" />
		</linearGradient>
		<path
   fill-rule="evenodd"
   clip-rule="evenodd"
   fill="url(#SVGID_2_)"
   d="m 450.6,0 c -3.4,0 -6.5,2.8 -6.5,6.6 v 0 0.1 c 0,-3.9 3.3,-5.7 5.1,-2.6 v 0 l 19.4,33.6 c 0.7,1.1 1,2.4 1,3.6 v 0 c 0,1.3 -0.3,2.5 -1,3.6 v 0 c 0.7,-1.1 1.6,-2 2.7,-2.7 v 0 c 1.1,-0.6 2.3,-1 3.6,-1 v 0 h 38.9 c 3.4,0 3.6,3.4 0.7,5.4 v 0 c 1.9,-1.3 2.9,-3.4 2.9,-5.4 v 0 c 0,-2.2 -1.1,-4.4 -3.3,-5.7 v 0 L 453.9,0.9 C 452.9,0.3 451.8,0 450.7,0 v 0 z"
   id="path29"
   style="fill:url(#SVGID_2_)" />
		
			<linearGradient
   id="SVGID_3_"
   gradientUnits="userSpaceOnUse"
   x1="-574.00049"
   y1="579.07269"
   x2="-570.30377"
   y2="580.2901"
   gradientTransform="matrix(9.3754,0,0,-5.3466,5851.9888,3156.5144)">
			<stop
   offset="0"
   style="stop-color:#8520DA"
   id="stop31" />
			<stop
   offset="0.6815"
   style="stop-color:#9136DD"
   id="stop33" />
			<stop
   offset="1"
   style="stop-color:#9D4DE1"
   id="stop35" />
		</linearGradient>
		<path
   fill-rule="evenodd"
   clip-rule="evenodd"
   fill="url(#SVGID_3_)"
   d="m 474.9,41.3 c -1.3,0 -2.6,0.3 -3.6,1 v 0 c -1.1,0.6 -2,1.5 -2.7,2.7 v 0 l -5.4,9.4 -14,24.2 c -1.8,3.1 -5.1,1.2 -5.1,-2.6 v 0 0 c 0,5 5.5,8.2 9.8,5.7 v 0 H 454 L 514,47 c 0,0 0.1,0 0.1,-0.1 v 0 c 0,0 0.1,0 0.1,-0.1 v 0 c 0,0 0,0 0.1,0 v 0 c 0,0 0.1,-0.1 0.1,-0.1 v 0 c 2.9,-2 2.7,-5.4 -0.7,-5.4 v 0 z"
   id="path38"
   style="fill:url(#SVGID_3_)" />
		
			<linearGradient
   id="SVGID_4_"
   gradientUnits="userSpaceOnUse"
   x1="-364.96191"
   y1="621.53387"
   x2="-361.10089"
   y2="621.53387"
   gradientTransform="matrix(3.299,0,0,-10.0634,1648.0835,6296.0386)">
			<stop
   offset="0"
   style="stop-color:#B3B3B3"
   id="stop40" />
			<stop
   offset="6.699999e-02"
   style="stop-color:#C9C9C9"
   id="stop42" />
			<stop
   offset="0.1596"
   style="stop-color:#E1E1E1"
   id="stop44" />
			<stop
   offset="0.2581"
   style="stop-color:#F2F2F2"
   id="stop46" />
			<stop
   offset="0.3659"
   style="stop-color:#FCFCFC"
   id="stop48" />
			<stop
   offset="1"
   style="stop-color:#FFFFFF"
   id="stop50" />
		</linearGradient>
		<path
   fill-rule="evenodd"
   clip-rule="evenodd"
   fill="url(#SVGID_4_)"
   d="m 444.1,6.6 v 69.3 c 0,3.9 3.3,5.7 5.1,2.6 v 0 l 14,-24.2 5.4,-9.4 c 0.7,-1.1 1,-2.4 1,-3.6 v 0 c 0,-1.3 -0.3,-2.5 -1,-3.6 v 0 L 449.1,4 c -0.6,-1.1 -1.4,-1.6 -2.2,-1.6 v 0 c -1.5,0 -2.8,1.7 -2.8,4.2"
   id="path53"
   style="fill:url(#SVGID_4_)" />
	</g>
</g>
</svg>
